PathFileType	4	(X/Y/Z)	Patient4_TMGait_0pt3_02_left_28.trc.trc
DataRate	CameraRate	NumFrames	NumMarkers	Units	OrigDataRate	OrigDataStartFrame	OrigNumFrames
50.000000000000	50.000000000000	4	33	mm	50.000000000000	106	       141
Frame#	Time	Sacral			L.Shoulder			Chest			R.Shoulder			Neck			R.ASIS			L.ASIS			R.Thigh.Superior			R.Thigh.Lateral			R.Thigh.Inferior			R.Patella			L.Thigh.Superior			L.Thigh.Lateral			L.Thigh.Inferior			L.Patella			L.Shank.Superior			L.Shank.Lateral			L.Shank.Inferior			R.Shank.Superior			R.Shank.Lateral			R.Shank.Inferior			R.Heel			R.Midfoot.Superior			R.Midfoot.Lateral			R.Toe			L.Heel			L.Midfoot.Lateral			L.Midfoot.Superior			L.Toe			L.Elbow			L.Wrist			R.Elbow			R.Wrist			
		X1	Y1	Z1	X2	Y2	Z2	X3	Y3	Z3	X4	Y4	Z4	X5	Y5	Z5	X6	Y6	Z6	X7	Y7	Z7	X8	Y8	Z8	X9	Y9	Z9	X10	Y10	Z10	X11	Y11	Z11	X12	Y12	Z12	X13	Y13	Z13	X14	Y14	Z14	X15	Y15	Z15	X16	Y16	Z16	X17	Y17	Z17	X18	Y18	Z18	X19	Y19	Z19	X20	Y20	Z20	X21	Y21	Z21	X22	Y22	Z22	X23	Y23	Z23	X24	Y24	Z24	X25	Y25	Z25	X26	Y26	Z26	X27	Y27	Z27	X28	Y28	Z28	X29	Y29	Z29	X30	Y30	Z30	X31	Y31	Z31	X32	Y32	Z32	X33	Y33	Z33	

106	56.820000000000	744.405062322612	988.169536650568	562.152589084322	916.492539522312	1419.512002281301	370.613099431507	1025.326506494113	1350.838961305515	527.577913120294	950.421020014525	1422.954263738393	705.669735052784	905.874248656405	1482.415438176819	528.799390809161	985.425365975974	927.324138437484	660.422381040214	948.200215015514	956.218611604250	389.647592976708	1037.308684447880	732.207200873129	612.168193436652	967.292519215621	612.425839731306	665.374886874962	1041.752471482034	570.817757927441	575.909623883889	1046.417891622876	475.252691631982	575.334843975075	1041.891851685902	776.640491939585	420.109361265627	1005.864855484181	648.114190040254	342.639689913126	1108.183964620209	591.367908070531	411.097190890602	1128.104977684779	505.973314228492	399.063616714347	1074.496491989724	435.371484532691	384.014594535028	945.164033846940	364.058431232685	338.135724782108	969.889670795396	231.578354200898	379.910284730051	1002.241973074724	387.604594896433	580.103915877829	921.168653901409	291.618831962144	643.175557818237	940.690321598829	196.255479322536	572.775131678345	783.164033352494	43.464397435448	547.723275861677	956.045187883111	95.703154441583	576.667082629438	868.807909493123	37.460081925608	619.147132917024	1076.822925770626	42.438003131642	601.614552265085	807.960860809321	113.386242256581	422.400336200515	867.969096390745	96.214296751981	333.324745120032	967.833462542194	131.670007759359	349.936806183193	1070.183376276360	51.803042891528	301.309852130876	888.949865163329	1062.034396363039	266.487201467427	953.225991644760	810.325514941430	255.239861734819	976.654002846408	1072.213663690214	826.988170461606	1154.313018783154	882.112322256759	831.249866265442	
107	56.840000000000	742.864349936310	986.937412027843	566.062287822745	912.376089092662	1417.038714877319	370.435508357509	1023.920064183788	1349.076940020192	525.790378955570	952.425149735435	1422.281895565890	704.924359335578	904.961509923066	1480.976055062027	528.341827784125	985.000442329406	925.904018797912	661.092530717154	944.388173778738	954.897645135006	390.695605373515	1036.430149876667	730.977416658664	612.351695019307	967.117460085169	610.955358839162	665.907737950078	1041.006298241877	569.603482545677	575.768174292512	1045.609044921128	473.594952071895	575.019142839492	1039.164713619811	777.230334010311	420.494482255530	1004.565551038032	648.759812556386	342.655616334711	1107.724488659341	593.307049554140	410.727813165800	1129.809671333961	509.413616246237	398.283835287162	1079.665705251867	437.583518548037	383.094696857611	954.497845132910	359.220632370859	337.366616038343	987.052364222126	227.959071836020	378.657262100683	1000.256380294226	386.085177489414	579.849063862939	918.411419935660	290.835150872685	643.200155436355	936.371742353358	195.410379099489	572.600417429169	777.217705072113	43.579385258815	547.764102542471	950.147408252251	95.628292455493	576.676736924012	862.863716441689	37.489004665739	619.167168004274	1070.892399262502	42.082079524710	601.663845683547	832.279813468560	100.498168133263	421.468702227540	893.026056496318	86.754191951255	332.216186758641	990.895668447210	127.789121491744	348.524496230697	1097.559417634526	53.859001855516	299.684115901382	872.387620140049	1059.967021031371	270.119801012307	919.591258901091	803.941734289993	260.207392017513	989.273477047356	1072.821011239239	826.777084374478	1181.758656574931	898.072913518392	824.403691458709	
108	56.860000000000	741.486996166767	986.325581090217	569.649677297637	908.212557807832	1415.274475283472	370.246761344376	1022.515703699041	1347.863256431705	523.810726337712	954.521191547124	1422.044764104115	703.976165748328	904.047373216689	1480.035383652567	527.867123055750	984.637326177383	924.937741304833	661.471042444748	940.795901299983	954.026957332219	391.489916571730	1035.043201108940	729.898406071879	612.442395268876	966.067267252202	609.882050020762	666.466740110165	1039.236492275545	568.544805671616	575.686720849800	1043.580125069129	472.267411439616	574.837707902981	1036.185038189153	777.805933969898	420.557427072881	1002.529781239624	649.456085073329	342.311351711507	1106.415943834636	594.999905643475	409.863418768940	1130.426736470636	512.776059540245	397.134985335664	1083.789096116755	439.923103636036	381.905645300882	963.294524613929	354.706813097903	335.966690643102	1003.406243884036	225.095443273274	377.063802253912	997.297669207138	384.917295583298	579.746931079166	914.903083615312	290.209438565977	643.365862274139	931.624968371944	194.783899906683	572.561120850177	771.242099514509	43.680967787447	547.829317188788	944.234334549620	95.579504397328	576.749904552830	856.896920298266	37.510012007387	619.210480414423	1064.927585483305	41.785245594918	601.705245521337	856.009390410752	88.983487335302	419.776970090138	917.631893920554	78.421281774201	330.628969549144	1013.260090382328	124.797415931763	346.918627702020	1123.966146200837	56.670475528271	298.455015336853	855.212324511270	1059.377582251609	273.345238873110	887.468326298933	800.682645260249	265.362583047353	1001.912470752215	1074.292201749878	826.154572131681	1207.917613357578	916.476361116070	816.684296478938	
109	56.880000000000	740.302082056283	986.391283604121	572.888525885014	904.021706971419	1414.296213021994	370.046396365117	1021.119634869733	1347.277902696123	521.648069345760	956.696053493834	1422.326269961417	702.816488186223	903.119285311713	1479.657657312858	527.375081881090	984.341561030408	924.472941399372	661.552808880498	937.460804972616	953.699990004001	392.023664267133	1033.131288601604	729.005978726418	612.416970161948	964.109382334899	609.243984299063	667.028105334783	1036.393485128917	567.672391271029	575.647995528706	1040.275715481367	471.306899668968	574.775510077919	1033.056056222408	778.453933855924	420.353165164308	999.845868347901	650.257417280495	341.678210840728	1104.325413338092	596.480502808634	408.598395971859	1129.986338197958	516.057737679289	395.737572989416	1086.824735413122	442.404158614427	380.550455691086	971.434253453050	350.712899105233	333.997017239119	1018.632426653467	223.129648001090	375.208493664237	993.324046105727	384.142630134221	579.788280251096	910.618271998806	289.769590639172	643.667615194808	926.431200778068	194.396853491035	572.644658889915	765.233340711961	43.768139007066	547.918257661265	938.300909773955	95.553705213789	576.873695908961	850.904364887576	37.522947089793	619.274559558839	1058.927720603795	41.550510951978	601.735754778296	878.639817975477	79.153402394840	417.361081391079	941.305756063168	71.500528476973	328.610766497864	1034.485435379660	122.858912677056	345.191913310081	1148.907020217009	60.301565330312	297.706537857975	837.680267178500	1060.339148804345	276.186809267739	857.212105012095	800.238291435999	270.654311832570	1014.580056965345	1076.735121832129	825.133607412865	1232.490443833729	937.210531936583	808.227256131306	
